<svg width="20" height="22" viewBox="0 0 20 22" fill="none" xmlns="http://www.w3.org/2000/svg">
<path d="M9.85379 1.63671H9.92123C12.8575 1.67296 15.2353 4.07319 15.2353 7.01785C15.2353 9.9852 12.8211 12.3998 9.85379 12.3998C6.88661 12.3997 4.47223 9.98526 4.47223 7.01826C4.47223 4.05093 6.88661 1.63671 9.85379 1.63671ZM9.85379 13.2607C13.296 13.2607 16.0962 10.4604 16.0962 7.01785C16.0962 3.57533 13.296 0.775 9.85379 0.775C6.41126 0.775 3.61094 3.57527 3.61094 7.01785C3.61094 10.4604 6.41121 13.2607 9.85379 13.2607Z" fill="white" stroke="white" stroke-width="0.45"/>
<path d="M0.775 21.0001V21.2251H1H18.7034H18.9284V21.0001V20.7945C18.9284 16.6696 14.8106 13.3902 9.85193 13.3902C4.89302 13.3902 0.775 16.6698 0.775 20.7945V21.0001ZM18.0491 20.3639H1.65396C1.93336 17.002 5.48129 14.2515 9.85193 14.2515C14.2224 14.2515 17.77 17.002 18.0491 20.3639Z" fill="white" stroke="white" stroke-width="0.45"/>
</svg>
