<svg width="25" height="22" viewBox="0 0 25 22" fill="none" xmlns="http://www.w3.org/2000/svg">
<path d="M12.5084 2.98988L12.7822 2.71551C12.7823 2.71549 12.7823 2.71546 12.7823 2.71543C15.3297 0.160138 19.4812 0.152673 22.0374 2.69885L22.4487 3.10855L22.4109 3.104C23.406 4.27739 23.9594 5.76971 23.9622 7.32004C23.9653 9.05487 23.2787 10.7197 22.0537 11.9479L12.5084 2.98988ZM12.5084 2.98988L12.233 2.71594L12.233 2.71593C11.0028 1.49231 9.33733 0.806763 7.60211 0.810055L12.5084 2.98988ZM21.3837 12.6226L22.0534 11.9483L7.60209 0.810055C5.86684 0.813186 4.20384 1.5049 2.97808 2.73311L2.97805 2.73315C1.75285 3.96144 1.06611 5.62639 1.06923 7.36136C1.07236 9.09633 1.76509 10.7587 2.99468 11.9826C2.99469 11.9827 2.9947 11.9827 2.9947 11.9827L12.0486 20.9982L12.1899 20.8567L12.0488 20.9984L12.0487 20.9983C12.1793 21.1287 12.3564 21.2015 12.5407 21.2012C12.7251 21.2009 12.9019 21.1273 13.0321 20.9965L21.3834 12.6229L21.3837 12.6226ZM11.7374 3.81074L11.7376 3.8109L11.7376 3.81091C11.9431 4.01488 12.2208 4.12896 12.5102 4.12844C12.7996 4.12792 13.0769 4.01284 13.2817 3.80813L13.2818 3.80797L13.5801 3.50907L13.5806 3.50863C14.5936 2.48724 15.9712 1.91082 17.4098 1.90623C18.8483 1.90177 20.2294 2.4696 21.2488 3.48469L21.3899 3.34297L21.2488 3.4847C22.2682 4.49963 22.842 5.87856 22.8437 7.31705C22.8454 8.75553 22.2748 10.1356 21.2578 11.153L21.1361 11.2747L21.1365 11.2752L20.5868 11.8268L20.5868 11.8269L12.5387 19.8971L3.78945 11.1853C3.78926 11.1852 3.78906 11.185 3.78887 11.1848C2.43688 9.81479 1.91334 7.83 2.41403 5.97123L2.22091 5.91921L2.41403 5.97123C2.91475 4.11221 4.36442 2.65859 6.22205 2.15302C8.07961 1.6475 10.0657 2.1658 11.4394 3.51431C11.4396 3.51448 11.4397 3.51465 11.4399 3.51481L11.7374 3.81074Z" fill="white" stroke="white" stroke-width="0.4"/>
</svg>
